<mxfile host="app.diagrams.net" modified="2024-03-13T22:36:18.699Z" agent="Mozilla/5.0 (X11; Ubuntu; Linux x86_64; rv:123.0) Gecko/20100101 Firefox/123.0" etag="4KCmszmgO8UER7iKobjm" version="24.0.5" type="device">
  <diagram id="C5RBs43oDa-KdzZeNtuy" name="Page-1">
    <mxGraphModel dx="1208" dy="714" grid="1" gridSize="10" guides="1" tooltips="1" connect="1" arrows="1" fold="1" page="1" pageScale="1" pageWidth="827" pageHeight="1169" math="0" shadow="0">
      <root>
        <mxCell id="WIyWlLk6GJQsqaUBKTNV-0" />
        <mxCell id="WIyWlLk6GJQsqaUBKTNV-1" parent="WIyWlLk6GJQsqaUBKTNV-0" />
        <mxCell id="zIFRkumOi4SNMZK80jnG-8" value="" style="rounded=0;whiteSpace=wrap;html=1;rotation=-90;fillColor=none;fontColor=#000000;strokeColor=#FF8000;strokeWidth=2;" vertex="1" parent="WIyWlLk6GJQsqaUBKTNV-1">
          <mxGeometry x="125" y="250" width="410" height="180" as="geometry" />
        </mxCell>
        <mxCell id="zIFRkumOi4SNMZK80jnG-0" value="&lt;div&gt;Pagina do&lt;/div&gt;&lt;div&gt;Portifolio&lt;/div&gt;&lt;div&gt;&lt;br&gt;&lt;/div&gt;" style="ellipse;whiteSpace=wrap;html=1;fillColor=#1ba1e2;strokeColor=#006EAF;fontColor=#ffffff;" vertex="1" parent="WIyWlLk6GJQsqaUBKTNV-1">
          <mxGeometry x="50" y="280" width="120" height="80" as="geometry" />
        </mxCell>
        <mxCell id="zIFRkumOi4SNMZK80jnG-12" style="edgeStyle=orthogonalEdgeStyle;rounded=0;orthogonalLoop=1;jettySize=auto;html=1;" edge="1" parent="WIyWlLk6GJQsqaUBKTNV-1" source="zIFRkumOi4SNMZK80jnG-3" target="zIFRkumOi4SNMZK80jnG-11">
          <mxGeometry relative="1" as="geometry" />
        </mxCell>
        <mxCell id="zIFRkumOi4SNMZK80jnG-3" value="btn_Sobre mim" style="rounded=0;whiteSpace=wrap;html=1;fillColor=#008a00;fontColor=#ffffff;strokeColor=#005700;" vertex="1" parent="WIyWlLk6GJQsqaUBKTNV-1">
          <mxGeometry x="270" y="250" width="120" height="60" as="geometry" />
        </mxCell>
        <mxCell id="zIFRkumOi4SNMZK80jnG-14" style="edgeStyle=orthogonalEdgeStyle;rounded=0;orthogonalLoop=1;jettySize=auto;html=1;entryX=0;entryY=0.75;entryDx=0;entryDy=0;" edge="1" parent="WIyWlLk6GJQsqaUBKTNV-1" source="zIFRkumOi4SNMZK80jnG-4" target="zIFRkumOi4SNMZK80jnG-11">
          <mxGeometry relative="1" as="geometry" />
        </mxCell>
        <mxCell id="zIFRkumOi4SNMZK80jnG-4" value="btn_Projetos desenvolvidos" style="rounded=0;whiteSpace=wrap;html=1;fillColor=#008a00;fontColor=#ffffff;strokeColor=#005700;" vertex="1" parent="WIyWlLk6GJQsqaUBKTNV-1">
          <mxGeometry x="270" y="360" width="120" height="60" as="geometry" />
        </mxCell>
        <mxCell id="zIFRkumOi4SNMZK80jnG-5" value="btn_Hobbies" style="rounded=0;whiteSpace=wrap;html=1;fillColor=#008a00;fontColor=#ffffff;strokeColor=#005700;" vertex="1" parent="WIyWlLk6GJQsqaUBKTNV-1">
          <mxGeometry x="270" y="460" width="120" height="60" as="geometry" />
        </mxCell>
        <mxCell id="zIFRkumOi4SNMZK80jnG-6" value="&lt;div&gt;text_ cabeçalho&lt;/div&gt;&lt;div&gt;&lt;br&gt;&lt;/div&gt;" style="rounded=0;whiteSpace=wrap;html=1;fillColor=#008a00;fontColor=#ffffff;strokeColor=#005700;" vertex="1" parent="WIyWlLk6GJQsqaUBKTNV-1">
          <mxGeometry x="270" y="150" width="120" height="60" as="geometry" />
        </mxCell>
        <mxCell id="zIFRkumOi4SNMZK80jnG-9" value="&lt;font style=&quot;font-size: 14px;&quot; face=&quot;Helvetica&quot; color=&quot;#ff8000&quot;&gt;Conteúdo da pagina&lt;/font&gt;" style="text;html=1;align=center;verticalAlign=middle;whiteSpace=wrap;rounded=0;fillColor=none;fontColor=#000000;strokeColor=none;" vertex="1" parent="WIyWlLk6GJQsqaUBKTNV-1">
          <mxGeometry x="240" y="100" width="150" height="30" as="geometry" />
        </mxCell>
        <mxCell id="zIFRkumOi4SNMZK80jnG-10" style="edgeStyle=orthogonalEdgeStyle;rounded=0;orthogonalLoop=1;jettySize=auto;html=1;entryX=0.549;entryY=0.011;entryDx=0;entryDy=0;entryPerimeter=0;" edge="1" parent="WIyWlLk6GJQsqaUBKTNV-1" source="zIFRkumOi4SNMZK80jnG-0" target="zIFRkumOi4SNMZK80jnG-8">
          <mxGeometry relative="1" as="geometry" />
        </mxCell>
        <mxCell id="zIFRkumOi4SNMZK80jnG-11" value="&lt;div&gt;Exibir janela de texto&lt;/div&gt;&lt;div&gt;&lt;br&gt;&lt;/div&gt;" style="rounded=0;whiteSpace=wrap;html=1;fillColor=#006600;fontColor=#ffffff;strokeColor=#3A5431;" vertex="1" parent="WIyWlLk6GJQsqaUBKTNV-1">
          <mxGeometry x="560" y="270" width="120" height="60" as="geometry" />
        </mxCell>
        <mxCell id="zIFRkumOi4SNMZK80jnG-15" style="edgeStyle=orthogonalEdgeStyle;rounded=0;orthogonalLoop=1;jettySize=auto;html=1;entryX=0.117;entryY=1.033;entryDx=0;entryDy=0;entryPerimeter=0;" edge="1" parent="WIyWlLk6GJQsqaUBKTNV-1" source="zIFRkumOi4SNMZK80jnG-5" target="zIFRkumOi4SNMZK80jnG-11">
          <mxGeometry relative="1" as="geometry" />
        </mxCell>
        <mxCell id="zIFRkumOi4SNMZK80jnG-16" value="apos o click" style="text;html=1;align=center;verticalAlign=middle;whiteSpace=wrap;rounded=0;" vertex="1" parent="WIyWlLk6GJQsqaUBKTNV-1">
          <mxGeometry x="420" y="250" width="60" height="30" as="geometry" />
        </mxCell>
      </root>
    </mxGraphModel>
  </diagram>
</mxfile>
